<svg width="32" height="38" viewBox="0 0 32 38" fill="none" xmlns="http://www.w3.org/2000/svg">
<path d="M24.2328 8.09937C24.2328 12.5725 20.6164 16.1987 16.1552 16.1987C11.6941 16.1987 8.07761 12.5725 8.07761 8.09937C8.07761 3.62621 11.6941 0 16.1552 0C20.6164 0 24.2328 3.62621 24.2328 8.09937Z" fill="#1769E8"/>
<path d="M1.77441 26.5686C-0.59147 24.1964 -0.591469 20.3502 1.77441 17.9779C4.14029 15.6057 7.97614 15.6057 10.342 17.9779L19.9683 27.6301C22.3342 30.0024 22.3341 33.8486 19.9683 36.2208C17.6024 38.5931 13.7665 38.5931 11.4007 36.2208L1.77441 26.5686Z" fill="#1769E8"/>
<path d="M30.2256 26.5686C32.5915 24.1964 32.5915 20.3502 30.2256 17.9779C27.8597 15.6057 24.0239 15.6057 21.658 17.9779L12.0317 27.6301C9.66585 30.0024 9.66585 33.8486 12.0317 36.2208C14.3976 38.5931 18.2335 38.5931 20.5993 36.2208L30.2256 26.5686Z" fill="#1769E8"/>
</svg>
